<svg width="388" height="94" viewBox="0 0 388 94" fill="none" xmlns="http://www.w3.org/2000/svg">
<g filter="url(#filter0_d_2312_2243)">
<path d="M6.03 35V14.665C6.03 13.7783 6.25167 12.9733 6.695 12.25C7.13833 11.5033 7.72167 10.9083 8.445 10.465C9.19167 10.0217 10.0083 9.8 10.895 9.8H26.33C27.2167 9.8 28.0333 10.0217 28.78 10.465C29.5267 10.9083 30.1217 11.5033 30.565 12.25C31.0083 12.9733 31.23 13.7783 31.23 14.665V35H26.575V26.53H10.65V35H6.03ZM10.65 21.91H26.575V14.875C26.575 14.7583 26.5283 14.665 26.435 14.595C26.3417 14.5017 26.2367 14.455 26.12 14.455H11.07C10.9533 14.455 10.8483 14.5017 10.755 14.595C10.685 14.665 10.65 14.7583 10.65 14.875V21.91ZM40.6428 35C39.7328 35 38.9161 34.7783 38.1928 34.335C37.4695 33.8917 36.8861 33.3083 36.4428 32.585C36.0228 31.8617 35.8128 31.0567 35.8128 30.17V19.53C35.8128 18.6433 36.0228 17.8383 36.4428 17.115C36.8861 16.3917 37.4695 15.8083 38.1928 15.365C38.9161 14.9217 39.7328 14.7 40.6428 14.7H51.8778V8.05H56.4628V35H40.6428ZM40.8528 30.415H51.4578C51.5745 30.415 51.6678 30.38 51.7378 30.31C51.8311 30.2167 51.8778 30.1117 51.8778 29.995V19.705C51.8778 19.5883 51.8311 19.495 51.7378 19.425C51.6678 19.3317 51.5745 19.285 51.4578 19.285H40.8528C40.7361 19.285 40.6311 19.3317 40.5378 19.425C40.4678 19.495 40.4328 19.5883 40.4328 19.705V29.995C40.4328 30.1117 40.4678 30.2167 40.5378 30.31C40.6311 30.38 40.7361 30.415 40.8528 30.415ZM66.7525 35C65.8659 35 65.0492 34.7783 64.3025 34.335C63.5792 33.8917 62.9959 33.3083 62.5525 32.585C62.1325 31.8617 61.9225 31.0567 61.9225 30.17V22.54H77.9525V19.705C77.9525 19.5883 77.9059 19.495 77.8125 19.425C77.7425 19.3317 77.6492 19.285 77.5325 19.285H61.9225V14.7H77.7075C78.5942 14.7 79.3992 14.9217 80.1225 15.365C80.8692 15.8083 81.4525 16.3917 81.8725 17.115C82.3159 17.8383 82.5375 18.6433 82.5375 19.53V35H66.7525ZM66.9275 30.415H77.9525V26.67H66.5075V29.995C66.5075 30.1117 66.5425 30.2167 66.6125 30.31C66.7059 30.38 66.8109 30.415 66.9275 30.415ZM92.0523 35C91.1657 35 90.3607 34.7783 89.6373 34.335C88.914 33.8917 88.3307 33.3083 87.8873 32.585C87.444 31.8617 87.2223 31.0567 87.2223 30.17V8.015H91.8423V29.995C91.8423 30.1117 91.8773 30.2167 91.9473 30.31C92.0407 30.38 92.1457 30.415 92.2623 30.415H96.1473V35H92.0523ZM105.389 35C104.503 35 103.686 34.7783 102.939 34.335C102.216 33.8917 101.633 33.3083 101.189 32.585C100.769 31.8617 100.559 31.0567 100.559 30.17V22.54H116.589V19.705C116.589 19.5883 116.543 19.495 116.449 19.425C116.379 19.3317 116.286 19.285 116.169 19.285H100.559V14.7H116.344C117.231 14.7 118.036 14.9217 118.759 15.365C119.506 15.8083 120.089 16.3917 120.509 17.115C120.953 17.8383 121.174 18.6433 121.174 19.53V35H105.389ZM105.564 30.415H116.589V26.67H105.144V29.995C105.144 30.1117 105.179 30.2167 105.249 30.31C105.343 30.38 105.448 30.415 105.564 30.415ZM131.476 35C130.589 35 129.784 34.7783 129.061 34.335C128.338 33.8917 127.754 33.3083 127.311 32.585C126.868 31.8617 126.646 31.0567 126.646 30.17V8.47H131.231V14.7H139.141V19.285H131.231V29.995C131.231 30.1117 131.266 30.2167 131.336 30.31C131.429 30.38 131.534 30.415 131.651 30.415H139.141V35H131.476ZM161.056 35C160.169 35 159.353 34.7783 158.606 34.335C157.883 33.8917 157.299 33.3083 156.856 32.585C156.413 31.8383 156.191 31.0217 156.191 30.135V28.21H160.811V29.925C160.811 30.0417 160.846 30.1467 160.916 30.24C161.009 30.31 161.114 30.345 161.231 30.345H176.316C176.433 30.345 176.526 30.31 176.596 30.24C176.689 30.1467 176.736 30.0417 176.736 29.925V25.13C176.736 25.0133 176.689 24.92 176.596 24.85C176.526 24.78 176.433 24.745 176.316 24.745H161.056C160.169 24.745 159.353 24.5233 158.606 24.08C157.883 23.6367 157.299 23.0533 156.856 22.33C156.413 21.5833 156.191 20.755 156.191 19.845V14.665C156.191 13.7783 156.413 12.9733 156.856 12.25C157.299 11.5033 157.883 10.9083 158.606 10.465C159.353 10.0217 160.169 9.8 161.056 9.8H176.526C177.413 9.8 178.218 10.0217 178.941 10.465C179.688 10.9083 180.283 11.5033 180.726 12.25C181.169 12.9733 181.391 13.7783 181.391 14.665V16.59H176.736V14.875C176.736 14.7583 176.689 14.665 176.596 14.595C176.526 14.5017 176.433 14.455 176.316 14.455H161.231C161.114 14.455 161.009 14.5017 160.916 14.595C160.846 14.665 160.811 14.7583 160.811 14.875V19.67C160.811 19.7867 160.846 19.88 160.916 19.95C161.009 20.02 161.114 20.055 161.231 20.055H176.526C177.413 20.055 178.218 20.2767 178.941 20.72C179.688 21.1633 180.283 21.7583 180.726 22.505C181.169 23.2283 181.391 24.045 181.391 24.955V30.135C181.391 31.0217 181.169 31.8383 180.726 32.585C180.283 33.3083 179.688 33.8917 178.941 34.335C178.218 34.7783 177.413 35 176.526 35H161.056ZM191.652 35C190.765 35 189.949 34.7783 189.202 34.335C188.479 33.8917 187.895 33.3083 187.452 32.585C187.032 31.8617 186.822 31.0567 186.822 30.17V22.54H202.852V19.705C202.852 19.5883 202.805 19.495 202.712 19.425C202.642 19.3317 202.549 19.285 202.432 19.285H186.822V14.7H202.607C203.494 14.7 204.299 14.9217 205.022 15.365C205.769 15.8083 206.352 16.3917 206.772 17.115C207.215 17.8383 207.437 18.6433 207.437 19.53V35H191.652ZM191.827 30.415H202.852V26.67H191.407V29.995C191.407 30.1117 191.442 30.2167 191.512 30.31C191.605 30.38 191.71 30.415 191.827 30.415ZM212.704 35V8.05H217.289V14.7H228.489C229.376 14.7 230.181 14.9217 230.904 15.365C231.628 15.8083 232.211 16.3917 232.654 17.115C233.098 17.8383 233.319 18.6433 233.319 19.53V35H228.734V19.705C228.734 19.5883 228.688 19.495 228.594 19.425C228.524 19.3317 228.431 19.285 228.314 19.285H217.709C217.593 19.285 217.488 19.3317 217.394 19.425C217.324 19.495 217.289 19.5883 217.289 19.705V35H212.704ZM242.628 35C241.741 35 240.924 34.7783 240.178 34.335C239.454 33.8917 238.871 33.3083 238.428 32.585C238.008 31.8617 237.798 31.0567 237.798 30.17V22.54H253.828V19.705C253.828 19.5883 253.781 19.495 253.688 19.425C253.618 19.3317 253.524 19.285 253.408 19.285H237.798V14.7H253.583C254.469 14.7 255.274 14.9217 255.998 15.365C256.744 15.8083 257.328 16.3917 257.748 17.115C258.191 17.8383 258.413 18.6433 258.413 19.53V35H242.628ZM242.803 30.415H253.828V26.67H242.383V29.995C242.383 30.1117 242.418 30.2167 242.488 30.31C242.581 30.38 242.686 30.415 242.803 30.415ZM266.894 42.525V37.905H279.109C279.226 37.905 279.319 37.8583 279.389 37.765C279.483 37.695 279.529 37.6017 279.529 37.485V35H268.329C267.466 35 266.661 34.7783 265.914 34.335C265.191 33.8917 264.608 33.3083 264.164 32.585C263.721 31.8617 263.499 31.0567 263.499 30.17V14.77H268.084V29.995C268.084 30.1117 268.119 30.2167 268.189 30.31C268.283 30.38 268.388 30.415 268.504 30.415H279.109C279.226 30.415 279.319 30.38 279.389 30.31C279.483 30.2167 279.529 30.1117 279.529 29.995V14.77H284.114V37.695C284.114 38.5817 283.904 39.3867 283.484 40.11C283.064 40.8567 282.481 41.44 281.734 41.86C281.011 42.3033 280.206 42.525 279.319 42.525H266.894ZM293.535 35C292.648 35 291.831 34.7783 291.085 34.335C290.361 33.8917 289.778 33.3083 289.335 32.585C288.915 31.8617 288.705 31.0567 288.705 30.17V22.54H304.735V19.705C304.735 19.5883 304.688 19.495 304.595 19.425C304.525 19.3317 304.431 19.285 304.315 19.285H288.705V14.7H304.49C305.376 14.7 306.181 14.9217 306.905 15.365C307.651 15.8083 308.235 16.3917 308.655 17.115C309.098 17.8383 309.32 18.6433 309.32 19.53V35H293.535ZM293.71 30.415H304.735V26.67H293.29V29.995C293.29 30.1117 293.325 30.2167 293.395 30.31C293.488 30.38 293.593 30.415 293.71 30.415ZM314.587 35V8.05H319.172V22.54H322.777L330.022 14.7H334.922V15.96L326.837 24.85L334.887 33.74V35H330.022L322.777 27.16H319.172V35H314.587ZM338.964 35V30.415H343.549V35H338.964ZM348.784 35V14.665C348.784 13.7783 349.006 12.9733 349.449 12.25C349.892 11.5033 350.476 10.9083 351.199 10.465C351.946 10.0217 352.762 9.8 353.649 9.8H369.084C369.971 9.8 370.787 10.0217 371.534 10.465C372.281 10.9083 372.876 11.5033 373.319 12.25C373.762 12.9733 373.984 13.7783 373.984 14.665V35H369.329V26.53H353.404V35H348.784ZM353.404 21.91H369.329V14.875C369.329 14.7583 369.282 14.665 369.189 14.595C369.096 14.5017 368.991 14.455 368.874 14.455H353.824C353.707 14.455 353.602 14.5017 353.509 14.595C353.439 14.665 353.404 14.7583 353.404 14.875V21.91ZM379.232 35V9.8H383.817V35H379.232Z" fill="white"/>
<path d="M4 74V44.5H5.5V74H4ZM7 74V44.5H8.5V74H7ZM13 74V44.5H16V74H13ZM24.0039 74V44.5H25.5039V74H24.0039ZM31.5039 74V44.5H33.0039V74H31.5039ZM36.0039 74V44.5H39.0039V74H36.0039ZM44.0078 74V44.5H45.5078V74H44.0078ZM48.5078 74V44.5H50.0078V74H48.5078ZM51.5078 74V44.5H54.5078V74H51.5078ZM64.0117 74V44.5H67.0117V74H64.0117ZM70.0117 74V44.5H71.5117V74H70.0117ZM73.0117 74V44.5H74.5117V74H73.0117ZM84.0156 74V44.5H85.5156V74H84.0156ZM88.5156 74V44.5H90.0156V74H88.5156ZM91.5156 74V44.5H94.5156V74H91.5156ZM104.02 74V44.5H105.52V74H104.02ZM108.52 74V44.5H114.52V74H108.52ZM116.02 74V44.5H117.52V74H116.02ZM124.023 74V44.5H127.023V74H124.023ZM128.523 74V44.5H131.523V74H128.523ZM134.523 74V44.5H137.523V74H134.523ZM144.027 74V44.5H147.027V74H144.027ZM148.527 74V44.5H153.027V74H148.527ZM154.527 74V44.5H156.027V74H154.527ZM164.031 74V44.5H165.531V74H164.031ZM168.531 74V44.5H170.031V74H168.531ZM171.531 74V44.5H174.531V74H171.531ZM184.035 74V44.5H185.535V74H184.035ZM188.535 74V44.5H191.535V74H188.535ZM197.535 74V44.5H199.035V74H197.535ZM204.039 74V44.5H205.539V74H204.039ZM208.539 74V44.5H210.039V74H208.539ZM211.539 74V44.5H214.539V74H211.539ZM224.043 74V44.5H227.043V74H224.043ZM228.543 74V44.5H231.543V74H228.543ZM233.043 74V44.5H239.043V74H233.043ZM244.047 74V44.5H245.547V74H244.047ZM248.547 74V44.5H250.047V74H248.547ZM251.547 74V44.5H254.547V74H251.547ZM264.051 74V44.5H267.051V74H264.051ZM273.051 74V44.5H274.551V74H273.051ZM277.551 74V44.5H279.051V74H277.551ZM284.055 74V44.5H285.555V74H284.055ZM288.555 74V44.5H291.555V74H288.555ZM294.555 74V44.5H299.055V74H294.555ZM304.059 74V44.5H305.559V74H304.059ZM307.059 74V44.5H308.559V74H307.059ZM313.059 74V44.5H316.059V74H313.059ZM324.062 74V44.5H327.063V74H324.062ZM331.563 74V44.5H333.063V74H331.563ZM337.563 74V44.5H339.063V74H337.563Z" fill="white"/>
</g>
<defs>
<filter id="filter0_d_2312_2243" x="0" y="0" width="390" height="102" filterUnits="userSpaceOnUse" color-interpolation-filters="sRGB">
<feFlood flood-opacity="0" result="BackgroundImageFix"/>
<feColorMatrix in="SourceAlpha" type="matrix" values="0 0 0 0 0 0 0 0 0 0 0 0 0 0 0 0 0 0 127 0" result="hardAlpha"/>
<feOffset dy="4"/>
<feGaussianBlur stdDeviation="2"/>
<feComposite in2="hardAlpha" operator="out"/>
<feColorMatrix type="matrix" values="0 0 0 0 0 0 0 0 0 0 0 0 0 0 0 0 0 0 0.25 0"/>
<feBlend mode="normal" in2="BackgroundImageFix" result="effect1_dropShadow_2312_2243"/>
<feBlend mode="normal" in="SourceGraphic" in2="effect1_dropShadow_2312_2243" result="shape"/>
</filter>
</defs>
</svg>
